<svg width="24" height="24" viewBox="0 0 24 24" fill="none" xmlns="http://www.w3.org/2000/svg">
<g clip-path="url(#clip0_212_17121)">
<path d="M12 16.5C13.7437 16.5 14.9625 15.6797 15.675 14.9109C16.0922 14.4563 16.8047 14.4234 17.2641 14.8453C17.7188 15.2672 17.7469 15.9797 17.325 16.4344C16.2984 17.5547 14.5172 18.75 12 18.75C9.48281 18.75 7.70156 17.5547 6.675 16.4344C6.25312 15.9797 6.23906 15.2672 6.73594 14.8453C7.19531 14.4234 7.90781 14.4563 8.325 14.9109C9.0375 15.6797 10.2563 16.5 12 16.5ZM9.76875 9.75C9.76875 10.5797 9.09375 11.25 8.26875 11.25C7.43906 11.25 6.76875 10.5797 6.76875 9.75C6.76875 8.92031 7.43906 8.25 8.26875 8.25C9.09375 8.25 9.76875 8.92031 9.76875 9.75ZM14.2687 9.75C14.2687 8.92031 14.9391 8.25 15.7687 8.25C16.5938 8.25 17.2687 8.92031 17.2687 9.75C17.2687 10.5797 16.5938 11.25 15.7687 11.25C14.9391 11.25 14.2687 10.5797 14.2687 9.75ZM24 12C24 18.6281 18.6281 24 12 24C5.37188 24 0 18.6281 0 12C0 5.37188 5.37188 0 12 0C18.6281 0 24 5.37188 24 12ZM12 2.25C6.61406 2.25 2.25 6.61406 2.25 12C2.25 17.3859 6.61406 21.75 12 21.75C17.3859 21.75 21.75 17.3859 21.75 12C21.75 6.61406 17.3859 2.25 12 2.25Z" fill="black"/>
</g>
<defs>
<clipPath id="clip0_212_17121">
<rect width="24" height="24" fill="white"/>
</clipPath>
</defs>
</svg>
